<?xml version="1.0" standalone="no"?>
<!DOCTYPE svg PUBLIC "-//W3C//DTD SVG 20010904//EN"
 "http://www.w3.org/TR/2001/REC-SVG-20010904/DTD/svg10.dtd">
<svg version="1.0" xmlns="http://www.w3.org/2000/svg"
 width="512.000000pt" height="512.000000pt" viewBox="0 0 512.000000 512.000000"
 preserveAspectRatio="xMidYMid meet">

<g transform="translate(0.000000,512.000000) scale(0.100000,-0.100000)"
fill="#000000" stroke="none">
<path d="M2273 5106 c-58 -26 -58 -22 -63 -496 l-5 -434 -95 -13 c-383 -51
-775 -183 -1081 -364 -92 -55 -114 -81 -114 -134 0 -56 29 -95 86 -116 l43
-16 -48 -34 c-430 -299 -712 -713 -807 -1185 -31 -156 -37 -412 -14 -576 126
-894 917 -1571 2002 -1715 162 -21 569 -24 728 -5 450 55 850 196 1180 417
458 305 746 720 847 1217 20 97 23 143 23 328 0 185 -3 231 -23 328 -95 468
-346 849 -765 1160 l-89 66 43 15 c84 31 114 127 58 187 -47 50 -278 171 -469
247 -211 83 -435 142 -670 176 l-125 17 -3 117 c-3 114 -2 117 20 122 13 3 84
17 158 31 143 27 182 43 199 81 23 51 14 98 -31 155 -171 217 -444 378 -708
417 -130 19 -243 22 -277 7z m333 -262 c79 -20 227 -92 292 -142 l53 -40 -58
-12 c-169 -32 -195 -46 -213 -108 -13 -47 -13 -456 0 -503 16 -56 48 -79 126
-89 259 -34 321 -44 424 -67 142 -32 316 -88 460 -149 61 -25 110 -47 108 -49
-2 -1 -120 -44 -262 -95 -142 -52 -270 -103 -283 -114 -37 -32 -44 -84 -21
-147 55 -151 61 -181 62 -311 1 -73 -3 -131 -9 -136 -6 -6 -133 84 -344 244
-327 249 -335 254 -381 254 -46 0 -54 -5 -381 -254 -214 -163 -338 -250 -344
-244 -6 5 -10 62 -10 131 0 125 9 167 64 319 18 50 19 62 8 94 -6 20 -23 45
-37 55 -14 11 -141 61 -284 112 l-259 94 109 46 c272 114 479 165 877 215 90
12 121 32 137 91 6 21 10 202 10 435 l0 399 48 -7 c27 -3 75 -13 108 -22z"/>
</g>
</svg>
