<svg version="1.0" xmlns="http://www.w3.org/2000/svg" width="682.667" height="682.667" viewBox="0 0 512 512"><path d="M227.3 1.4C221.5 4 221.5 3.6 221 51l-.5 43.4-9.5 1.3c-38.3 5.1-77.5 18.3-108.1 36.4-9.2 5.5-11.4 8.1-11.4 13.4 0 5.6 2.9 9.5 8.6 11.6l4.3 1.6-4.8 3.4c-43 29.9-71.2 71.3-80.7 118.5-3.1 15.6-3.7 41.2-1.4 57.6 12.6 89.4 91.7 157.1 200.2 171.5 16.2 2.1 56.9 2.4 72.8.5 45-5.5 85-19.6 118-41.7 45.8-30.5 74.6-72 84.7-121.7 2-9.7 2.3-14.3 2.3-32.8 0-18.5-.3-23.1-2.3-32.8-9.5-46.8-34.6-84.9-76.5-116l-8.9-6.6 4.3-1.5c8.4-3.1 11.4-12.7 5.8-18.7-4.7-5-27.8-17.1-46.9-24.7-21.1-8.3-43.5-14.2-67-17.6l-12.5-1.7-.3-11.7c-.3-11.4-.2-11.7 2-12.2 1.3-.3 8.4-1.7 15.8-3.1 14.3-2.7 18.2-4.3 19.9-8.1 2.3-5.1 1.4-9.8-3.1-15.5C308.7 22.1 281.4 6 255 2.1c-13-1.9-24.3-2.2-27.7-.7zm33.3 26.2c7.9 2 22.7 9.2 29.2 14.2l5.3 4-5.8 1.2c-16.9 3.2-19.5 4.6-21.3 10.8-1.3 4.7-1.3 45.6 0 50.3 1.6 5.6 4.8 7.9 12.6 8.9 25.9 3.4 32.1 4.4 42.4 6.7 14.2 3.2 31.6 8.8 46 14.9 6.1 2.5 11 4.7 10.8 4.9-.2.1-12 4.4-26.2 9.5-14.2 5.2-27 10.3-28.3 11.4-3.7 3.2-4.4 8.4-2.1 14.7 5.5 15.1 6.1 18.1 6.2 31.1.1 7.3-.3 13.1-.9 13.6-.6.6-13.3-8.4-34.4-24.4-32.7-24.9-33.5-25.4-38.1-25.4-4.6 0-5.4.5-38.1 25.4-21.4 16.3-33.8 25-34.4 24.4-.6-.5-1-6.2-1-13.1 0-12.5.9-16.7 6.4-31.9 1.8-5 1.9-6.2.8-9.4-.6-2-2.3-4.5-3.7-5.5-1.4-1.1-14.1-6.1-28.4-11.2l-25.9-9.4 10.9-4.6c27.2-11.4 47.9-16.5 87.7-21.5 9-1.2 12.1-3.2 13.7-9.1.6-2.1 1-20.2 1-43.5V24.7l4.8.7c2.7.3 7.5 1.3 10.8 2.2z"/></svg>